<?xml version="1.0" encoding="utf-8"?>
<!-- Generator: Adobe Illustrator 14.0.0, SVG Export Plug-In . SVG Version: 6.00 Build 43363)  -->
<!DOCTYPE svg PUBLIC "-//W3C//DTD SVG 1.1//EN" "http://www.w3.org/Graphics/SVG/1.1/DTD/svg11.dtd">
<svg version="1.1" id="Capa_1" xmlns="http://www.w3.org/2000/svg" xmlns:xlink="http://www.w3.org/1999/xlink" x="0px" y="0px"
	 width="25px" height="22px" viewBox="0 0 25 22" enable-background="new 0 0 25 22" xml:space="preserve">
<g>
	<path fill="#FFFFFF" d="M12.63,4.654c4.099,0.042,6.657-0.214,7.009,4.319h4.99C24.629,1.947,18.502,1,12.508,1
		C6.509,1,0.376,1.947,0.376,8.974H5.33C5.716,4.354,8.575,4.613,12.63,4.654z"/>
	<path fill="#FFFFFF" d="M2.856,11.235c1.211,0,2.227,0.072,2.452-1.123C5.337,9.95,5.356,9.765,5.356,9.55H5.298H0.356
		C0.356,11.33,1.472,11.235,2.856,11.235z"/>
	<path fill="#FFFFFF" d="M19.671,9.55h-0.052c0,0.215,0.02,0.4,0.059,0.563c0.234,1.103,1.25,1.033,2.461,1.033
		c1.387,0,2.505,0.094,2.505-1.596H19.671z"/>
	<path fill="#FFFFFF" d="M17.235,8.339V7.636c0-0.319-0.37-0.339-0.819-0.339h-0.734c-0.45,0-0.809,0.02-0.809,0.339v0.605v0.474
		h-5.2V8.241V7.636c0-0.319-0.366-0.339-0.816-0.339H8.12c-0.449,0-0.811,0.02-0.811,0.339v0.703v0.617
		c-1.184,1.229-5.059,6.468-5.201,7.105l0.004,4.226C2.113,20.678,2.427,21,2.817,21h18.903c0.391,0,0.711-0.322,0.711-0.713v-4.249
		c-0.139-0.614-4.019-5.853-5.196-7.082V8.339z M9.416,16.634c-0.38,0-0.69-0.312-0.69-0.694c0-0.379,0.31-0.691,0.69-0.691
		c0.38,0,0.687,0.313,0.687,0.691C10.103,16.322,9.796,16.634,9.416,16.634z M9.416,14.271c-0.38,0-0.69-0.313-0.69-0.693
		s0.31-0.693,0.69-0.693c0.38,0,0.687,0.313,0.687,0.693S9.796,14.271,9.416,14.271z M9.416,11.908c-0.38,0-0.69-0.313-0.69-0.691
		c0-0.381,0.31-0.69,0.69-0.69c0.38,0,0.687,0.31,0.687,0.69C10.103,11.596,9.796,11.908,9.416,11.908z M12.254,16.634
		c-0.384,0-0.694-0.312-0.694-0.694c0-0.379,0.311-0.691,0.694-0.691c0.373,0,0.686,0.313,0.686,0.691
		C12.939,16.322,12.627,16.634,12.254,16.634z M12.254,14.271c-0.384,0-0.694-0.313-0.694-0.693s0.311-0.693,0.694-0.693
		c0.373,0,0.686,0.313,0.686,0.693S12.627,14.271,12.254,14.271z M12.254,11.908c-0.384,0-0.694-0.313-0.694-0.691
		c0-0.381,0.311-0.69,0.694-0.69c0.373,0,0.686,0.31,0.686,0.69C12.939,11.596,12.627,11.908,12.254,11.908z M15.088,16.634
		c-0.387,0-0.69-0.312-0.69-0.694c0-0.379,0.304-0.691,0.69-0.691c0.374,0,0.684,0.313,0.684,0.691
		C15.771,16.322,15.462,16.634,15.088,16.634z M15.088,14.271c-0.387,0-0.69-0.313-0.69-0.693s0.304-0.693,0.69-0.693
		c0.374,0,0.684,0.313,0.684,0.693S15.462,14.271,15.088,14.271z M15.088,11.908c-0.387,0-0.69-0.313-0.69-0.691
		c0-0.381,0.304-0.69,0.69-0.69c0.374,0,0.684,0.31,0.684,0.69C15.771,11.596,15.462,11.908,15.088,11.908z"/>
</g>
</svg>
